<?xml version="1.0" encoding="UTF-8" standalone="no"?>
<svg xmlns="http://www.w3.org/2000/svg" width="96px" height="96px" baseProfile="tiny" version="1.1" xmlns:xlink="http://www.w3.org/1999/xlink" viewBox="0 0 96 96">
 <rect id="BOUNDING_BOX_1_" width="96" height="96" fill="none"/>
 <path id="SHADOW_1_" opacity="0.4" d="M88.023,49c0,29.633-10.364,40-40,40-29.635,0-40-10.367-40-40,0-29.634,10.366-40,40-40,29.636,0,40,10.365,40,40z"/>
 <path id="GREY_5_1_" fill="#CECECE" d="M8,47.978c0,29.633,10.365,40,40,40,29.637,0,40-10.367,40-40,0-28.985-9.926-39.53-38.091-39.978h-3.818c-28.163,0.448-38.091,10.993-38.091,39.978z" display="none"/>
 <path id="GREY_4_1_" fill="#D3D3D3" d="M8,47.978c0,29.633,10.365,40,40,40,29.637,0,40-10.367,40-40,0-28.985-9.926-39.53-38.091-39.978h-3.818c-28.163,0.448-38.091,10.993-38.091,39.978z" display="none"/>
 <path id="GREY_3_1_" fill="#E0E0E0" d="M8,47.978c0,29.633,10.365,40,40,40,29.637,0,40-10.367,40-40,0-28.985-9.926-39.53-38.091-39.978h-3.818c-28.163,0.448-38.091,10.993-38.091,39.978z" display="none"/>
 <path id="GREY_2_1_" fill="#E8E8E8" d="M8,47.978c0,29.633,10.365,40,40,40,29.637,0,40-10.367,40-40,0-28.985-9.926-39.53-38.091-39.978h-3.818c-28.163,0.448-38.091,10.993-38.091,39.978z" display="none"/>
 <linearGradient id="GREY_1_2_" y2="87.642" gradientUnits="userSpaceOnUse" y1="7.6631" x2="48" x1="48">
  <stop stop-color="#FFF" offset="0"/>
  <stop stop-color="#CCCAC6" offset="1"/>
 </linearGradient>
 <path id="GREY_1_1_" fill="url(#GREY_1_2_)" d="M8,47.978c0,29.633,10.365,40,40,40,29.637,0,40-10.367,40-40,0-28.985-9.926-39.53-38.091-39.978h-3.818c-28.163,0.448-38.091,10.993-38.091,39.978z" display="none"/>
 <path id="GREEN_4_5_" fill="#ED9507" d="M8,47.978c0,29.633,10.365,40,40,40,29.637,0,40-10.367,40-40,0-28.985-9.926-39.53-38.091-39.978h-3.818c-28.163,0.448-38.091,10.993-38.091,39.978z" display="none"/>
 <path id="GREEN_4_4_" fill="#FF8500" d="M8,47.978c0,29.633,10.365,40,40,40,29.637,0,40-10.367,40-40,0-28.985-9.926-39.53-38.091-39.978h-3.818c-28.163,0.448-38.091,10.993-38.091,39.978z" display="none"/>
 <path id="GREEN_3_3_" fill="#F77219" d="M8,47.978c0,29.633,10.365,40,40,40,29.637,0,40-10.367,40-40,0-28.985-9.926-39.53-38.091-39.978h-3.818c-28.163,0.448-38.091,10.993-38.091,39.978z" display="none"/>
 <path id="GREEN_2_3_" fill="#EA650A" d="M8,47.978c0,29.633,10.365,40,40,40,29.637,0,40-10.367,40-40,0-28.985-9.926-39.53-38.091-39.978h-3.818c-28.163,0.448-38.091,10.993-38.091,39.978z" display="none"/>
 <path id="GREEN_1_3_" fill="#EF5500" d="M8,47.978c0,29.633,10.365,40,40,40,29.637,0,40-10.367,40-40,0-28.985-9.926-39.53-38.091-39.978h-3.818c-28.163,0.448-38.091,10.993-38.091,39.978z" display="none"/>
 <path id="GREEN_4_3_" fill="#306600" d="M8,47.978c0,29.633,10.365,40,40,40,29.637,0,40-10.367,40-40,0-28.985-9.926-39.53-38.091-39.978h-3.818c-28.163,0.448-38.091,10.993-38.091,39.978z" display="none"/>
 <path id="GREEN_3_2_" fill="#347708" d="M8,47.978c0,29.633,10.365,40,40,40,29.637,0,40-10.367,40-40,0-28.985-9.926-39.53-38.091-39.978h-3.818c-28.163,0.448-38.091,10.993-38.091,39.978z" display="none"/>
 <path id="GREEN_2_2_" fill="#3E8A41" d="M8,47.978c0,29.633,10.365,40,40,40,29.637,0,40-10.367,40-40,0-28.985-9.926-39.53-38.091-39.978h-3.818c-28.163,0.448-38.091,10.993-38.091,39.978z" display="none"/>
 <path id="GREEN_1_2_" fill="#62B700" d="M8,47.978c0,29.633,10.365,40,40,40,29.637,0,40-10.367,40-40,0-28.985-9.926-39.53-38.091-39.978h-3.818c-28.163,0.448-38.091,10.993-38.091,39.978z" display="none"/>
 <path id="PINK_2_1_" fill="#E800A1" d="M8,47.978c0,29.633,10.365,40,40,40,29.637,0,40-10.367,40-40,0-28.985-9.926-39.53-38.091-39.978h-3.818c-28.163,0.448-38.091,10.993-38.091,39.978z" display="none"/>
 <path id="PINK_1_1_" fill="#CC09BA" d="M8,47.978c0,29.633,10.365,40,40,40,29.637,0,40-10.367,40-40,0-28.985-9.926-39.53-38.091-39.978h-3.818c-28.163,0.448-38.091,10.993-38.091,39.978z" display="none"/>
 <path id="VIOLET_2_1_" fill="#870CBA" d="M8,47.978c0,29.633,10.365,40,40,40,29.637,0,40-10.367,40-40,0-28.985-9.926-39.53-38.091-39.978h-3.818c-28.163,0.448-38.091,10.993-38.091,39.978z" display="none"/>
 <path id="VIOLET_1_1_" fill="#6400BC" d="M8,47.978c0,29.633,10.365,40,40,40,29.637,0,40-10.367,40-40,0-28.985-9.926-39.53-38.091-39.978h-3.818c-28.163,0.448-38.091,10.993-38.091,39.978z" display="none"/>
 <path id="BLUE_4_1_" fill="#1C51AF" d="M8,47.978c0,29.633,10.365,40,40,40,29.637,0,40-10.367,40-40,0-28.985-9.926-39.53-38.091-39.978h-3.818c-28.163,0.448-38.091,10.993-38.091,39.978z" display="none"/>
 <path id="BLUE_3_1_" d="M8,47.978c0,29.633,10.365,40,40,40,29.637,0,40-10.367,40-40,0-28.985-9.926-39.53-38.091-39.978h-3.818c-28.163,0.448-38.091,10.993-38.091,39.978z" fill="#0067BC"/>
 <path id="BLUE_2_1_" fill="#007DC9" d="M8,47.978c0,29.633,10.365,40,40,40,29.637,0,40-10.367,40-40,0-28.985-9.926-39.53-38.091-39.978h-3.818c-28.163,0.448-38.091,10.993-38.091,39.978z" display="none"/>
 <path id="BLUE_1_1_" fill="#09A7CC" d="M8,47.978c0,29.633,10.365,40,40,40,29.637,0,40-10.367,40-40,0-28.985-9.926-39.53-38.091-39.978h-3.818c-28.163,0.448-38.091,10.993-38.091,39.978z" display="none"/>
 <path opacity="0.05" d="M75.537,30.299c-1.1-1.847-2.54-3.452-4.284-4.773-1.813-1.354-3.717-2.273-5.821-2.807-1.263-0.325-2.55-0.489-3.824-0.489-0.807,0-1.692,0.072-2.321,0.186-0.949,0.079-1.778,0.542-2.402,1.342-0.855,1.121-0.785,2.242-0.571,2.999,0.138,0.44,0.351,0.841,0.634,1.198-0.423,0.745-0.563,1.6-0.38,2.314,0.107,0.592,0.359,1.138,0.735,1.598-0.355,0.655-0.495,1.382-0.38,1.976,0.035,0.406,0.143,0.795,0.316,1.156h-28.339c-4.505,0-8.169,3.665-8.169,8.169v12.662c-0.001,4.505,3.664,8.17,8.169,8.17h28.072l4.974,4.238c0.451,0.384,1.026,0.596,1.619,0.596,0.366,0,0.721-0.078,1.051-0.231,0.88-0.407,1.449-1.297,1.449-2.269v-23.165c0-0.527-0.051-1.05-0.15-1.563,0.207,0.039,0.417,0.059,0.631,0.059,0.186,0,0.368-0.015,0.57-0.049,0.724-0.125,1.365-0.451,1.849-0.931,0.435,0.199,0.89,0.3,1.359,0.3,0.396,0,0.595-0.043,0.695-0.077,0.684-0.138,1.286-0.465,1.793-0.974,0.418,0.179,0.871,0.272,1.329,0.272,0.216,0,0.435-0.024,0.503-0.038,0.929-0.128,1.713-0.587,2.27-1.328,0.492-0.653,0.712-1.442,0.687-2.537-0.277-2.128-0.97-4.147-2.064-6.004z"/>
 <path opacity="0.07" d="M75.107,30.555c-1.066-1.792-2.464-3.349-4.154-4.629-1.759-1.315-3.606-2.206-5.646-2.723-1.223-0.314-2.468-0.474-3.699-0.474-0.788,0-1.635,0.069-2.28,0.184-0.805,0.067-1.512,0.462-2.046,1.148-0.731,0.958-0.673,1.905-0.492,2.545,0.154,0.491,0.411,0.924,0.783,1.301-0.016,0.021-0.03,0.041-0.046,0.062-0.471,0.685-0.643,1.524-0.468,2.211,0.113,0.627,0.408,1.182,0.865,1.627-0.434,0.626-0.619,1.384-0.504,1.992,0.056,0.638,0.319,1.225,0.764,1.705-0.096-0.003-0.192-0.005-0.289-0.005h-28.995c-4.229,0-7.669,3.44-7.669,7.669v12.662c0,4.229,3.44,7.669,7.669,7.669h28.256l5.113,4.357c0.361,0.308,0.821,0.477,1.295,0.477,0.293,0,0.576-0.063,0.841-0.186,0.704-0.325,1.159-1.038,1.159-1.814v-23.164c0-0.814-0.128-1.599-0.363-2.335,0.418,0.217,0.875,0.331,1.344,0.331,0.158,0,0.314-0.013,0.485-0.042,0.752-0.13,1.4-0.513,1.819-1.064,0.465,0.283,0.96,0.426,1.474,0.426,0.101,0,0.445-0.006,0.555-0.059,0.711-0.134,1.319-0.501,1.818-1.108,0.438,0.255,0.932,0.389,1.444,0.389,0.177,0,0.356-0.018,0.435-0.033,0.794-0.109,1.464-0.501,1.938-1.133,0.42-0.557,0.609-1.229,0.59-2.172-0.266-2.064-0.938-4.019-1.996-5.814zm-11.581,7.414c-0.607-0.658-1.328-1.208-2.131-1.622,0.093,0.009,0.202,0.03,0.328,0.065,0.337,0.088,0.657,0.244,0.941,0.456,0.32,0.254,0.551,0.512,0.711,0.798,0.066,0.112,0.116,0.217,0.151,0.303z"/>
 <path opacity="0.1" d="M57.895,36h-28.995c-3.953,0-7.169,3.216-7.169,7.169v12.662c-0.001,3.953,3.216,7.169,7.169,7.169h28.441l5.252,4.477c0.271,0.23,0.616,0.357,0.972,0.357,0.22,0,0.432-0.047,0.631-0.14,0.528-0.244,0.869-0.778,0.869-1.36v-23.165c-0.001-3.953-3.217-7.169-7.17-7.169zm16.783-5.189c-1.033-1.735-2.386-3.244-4.023-4.484-1.706-1.275-3.497-2.138-5.472-2.639-1.182-0.304-2.385-0.458-3.575-0.458-0.768,0-1.578,0.067-2.239,0.183-0.662,0.055-1.245,0.383-1.689,0.953-0.605,0.793-0.561,1.568-0.412,2.093,0.167,0.534,0.476,0.983,0.93,1.344,0.03,0.022,0.06,0.044,0.091,0.064-0.127,0.115-0.244,0.244-0.349,0.387-0.396,0.576-0.534,1.259-0.388,1.839,0.112,0.623,0.439,1.161,0.95,1.558,0.043,0.032,0.086,0.063,0.129,0.093-0.097,0.095-0.188,0.2-0.27,0.313-0.382,0.533-0.541,1.17-0.442,1.701,0.061,0.697,0.42,1.319,1.029,1.762,0.218,0.146,0.495,0.309,0.926,0.418,0.153,0.03,0.303,0.045,0.455,0.045,0.252,0,0.517-0.043,0.688-0.106,0.087-0.023,0.184-0.035,0.287-0.035,0.156,0,0.338,0.028,0.547,0.086,0.4,0.104,0.782,0.292,1.126,0.548,0.373,0.296,0.644,0.601,0.832,0.938,0.206,0.354,0.292,0.664,0.303,0.788-0.022,0.788,0.323,1.488,0.976,1.973,0.434,0.321,0.938,0.49,1.459,0.49,0.131,0,0.261-0.011,0.4-0.034,0.643-0.111,1.197-0.447,1.547-0.928,0.091-0.114,0.171-0.232,0.239-0.354,0.05,0.045,0.103,0.091,0.157,0.135,0.451,0.333,0.934,0.501,1.435,0.501,0.157,0,0.379-0.018,0.462-0.05,0.621-0.117,1.146-0.444,1.572-0.992,0.076-0.107,0.144-0.218,0.201-0.333,0.041,0.034,0.083,0.067,0.127,0.099,0.423,0.326,0.926,0.498,1.455,0.498,0.142,0,0.285-0.013,0.366-0.028,0.659-0.091,1.215-0.416,1.607-0.939,0.35-0.463,0.507-1.019,0.493-1.807-0.258-1.995-0.907-3.886-1.93-5.622z"/>
 <path opacity="0.15" d="M57.895,36.5h-28.995c-3.678,0-6.669,2.992-6.669,6.669v12.662c0,3.678,2.992,6.669,6.669,6.669h28.625l5.391,4.596c0.181,0.153,0.411,0.238,0.648,0.238,0.146,0,0.288-0.031,0.421-0.093,0.352-0.163,0.579-0.52,0.579-0.907v-23.165c0-3.677-2.992-6.669-6.669-6.669zm16.353-5.433c-1-1.681-2.31-3.14-3.894-4.34-1.652-1.235-3.386-2.071-5.297-2.555-1.141-0.293-2.301-0.442-3.45-0.442-0.745,0-1.52,0.064-2.198,0.181-0.519,0.043-0.979,0.304-1.333,0.758-0.48,0.629-0.447,1.232-0.332,1.64,0.136,0.436,0.384,0.8,0.752,1.093,0.29,0.217,0.618,0.343,0.976,0.376-0.453,0.123-0.846,0.385-1.121,0.758-0.318,0.464-0.426,0.997-0.308,1.468,0.09,0.499,0.352,0.93,0.762,1.249,0.302,0.23,0.629,0.361,0.975,0.389-0.403,0.11-0.758,0.356-1.013,0.706-0.308,0.43-0.43,0.93-0.351,1.367,0.048,0.55,0.329,1.04,0.81,1.39,0.192,0.129,0.413,0.259,0.744,0.343,0.121,0.024,0.238,0.036,0.358,0.036,0.201,0,0.405-0.034,0.557-0.088,0.13-0.035,0.271-0.053,0.418-0.053,0.202,0,0.426,0.034,0.673,0.102,0.464,0.121,0.908,0.339,1.311,0.64,0.426,0.338,0.736,0.688,0.954,1.078,0.219,0.376,0.351,0.767,0.37,1.054-0.018,0.62,0.257,1.173,0.772,1.557,0.347,0.256,0.748,0.392,1.162,0.392,0.104,0,0.207-0.009,0.315-0.027,0.521-0.09,0.955-0.355,1.241-0.748,0.286-0.358,0.432-0.766,0.425-1.167,0.122,0.315,0.339,0.597,0.659,0.858,0.363,0.268,0.747,0.403,1.138,0.403,0.149,0,0.303-0.02,0.37-0.042,0.498-0.093,0.916-0.354,1.257-0.791,0.229-0.321,0.354-0.677,0.387-1.16,0.13,0.321,0.352,0.6,0.654,0.82,0.334,0.258,0.732,0.394,1.149,0.394,0.109,0,0.221-0.01,0.298-0.023,0.524-0.072,0.966-0.331,1.276-0.745,0.278-0.369,0.405-0.809,0.396-1.442-0.248-1.929-0.875-3.754-1.862-5.429z"/>
 <path opacity="0.15" d="M57.895,37h-28.995c-3.402,0-6.169,2.768-6.169,6.169v12.662c-0.001,3.401,2.767,6.169,6.169,6.169h28.81l5.53,4.715c0.092,0.078,0.208,0.119,0.324,0.119,0.071,0,0.143-0.015,0.21-0.046,0.177-0.082,0.29-0.259,0.29-0.454v-23.165c0-3.401-2.767-6.169-6.169-6.169zm7.475-3.659c-0.841-0.634-1.709-1.04-2.648-1.24-0.469-0.104-0.936-0.157-1.388-0.157-0.456,0-0.907,0.054-1.311,0.153-0.34,0.062-0.641,0.252-0.851,0.54-0.231,0.324-0.318,0.695-0.259,1.032,0.035,0.404,0.239,0.762,0.59,1.018,0.155,0.104,0.327,0.208,0.565,0.269,0.087,0.018,0.172,0.026,0.259,0.026,0.148,0,0.298-0.026,0.427-0.071,0.172-0.046,0.356-0.07,0.548-0.07,0.248,0,0.514,0.039,0.799,0.118,0.529,0.138,1.035,0.388,1.495,0.732,0.477,0.378,0.828,0.775,1.076,1.219,0.265,0.456,0.412,0.915,0.438,1.319-0.013,0.452,0.188,0.856,0.57,1.141,0.26,0.192,0.559,0.294,0.864,0.294,0.076,0,0.152-0.006,0.23-0.02,0.397-0.069,0.716-0.266,0.936-0.567,0.227-0.284,0.332-0.597,0.313-0.913-0.021-0.85-0.268-1.735-0.739-2.644-0.458-0.826-1.101-1.559-1.914-2.179zm2.329-3.09c-1.184-0.894-2.478-1.52-3.834-1.856-0.785-0.211-1.595-0.318-2.408-0.318-0.572,0-1.16,0.053-1.762,0.161-0.385,0.082-0.712,0.282-0.933,0.581-0.239,0.349-0.316,0.738-0.228,1.097,0.067,0.375,0.265,0.7,0.573,0.939,0.254,0.194,0.527,0.292,0.813,0.292,0.109,0,0.221-0.015,0.289-0.034,0.393-0.065,0.789-0.098,1.179-0.098,0.589,0,1.18,0.076,1.763,0.226,0.998,0.245,1.913,0.683,2.792,1.334,0.864,0.66,1.556,1.437,2.056,2.309,0.518,0.895,0.823,1.831,0.908,2.771,0.028,0.396,0.209,0.726,0.574,1.024,0.28,0.206,0.556,0.306,0.842,0.306,0.105,0,0.212-0.014,0.278-0.034,0.373-0.07,0.686-0.261,0.941-0.589,0.191-0.269,0.292-0.572,0.305-0.999-0.146-1.401-0.585-2.725-1.302-3.933-0.712-1.219-1.67-2.288-2.846-3.179zm6.119,1.072c-0.967-1.625-2.232-3.036-3.764-4.195-1.599-1.195-3.274-2.003-5.122-2.471-1.1-0.283-2.218-0.427-3.325-0.427-0.726,0-1.465,0.062-2.157,0.179-0.376,0.031-0.713,0.226-0.977,0.564-0.354,0.464-0.335,0.895-0.252,1.188,0.105,0.339,0.295,0.619,0.573,0.841,0.253,0.189,0.545,0.285,0.868,0.285,0.081,0,0.165-0.006,0.256-0.02,0.514-0.08,1.036-0.121,1.553-0.121,0.905,0,1.828,0.125,2.745,0.371,1.445,0.377,2.812,1.042,4.058,1.973,1.24,0.941,2.251,2.064,3.007,3.342,0.773,1.285,1.241,2.625,1.426,4.068,0.031,0.412,0.232,0.756,0.589,1.016,0.246,0.189,0.538,0.29,0.845,0.29,0.08,0,0.161-0.007,0.229-0.019,0.395-0.055,0.713-0.24,0.945-0.55,0.204-0.271,0.304-0.604,0.3-1.078-0.24-1.859-0.844-3.62-1.797-5.236z"/>
 <path d="M65.978,37.969c-0.242-0.181-0.376-0.422-0.367-0.724-0.031-0.532-0.203-1.064-0.505-1.584-0.298-0.532-0.713-0.975-1.198-1.359-0.521-0.391-1.08-0.668-1.679-0.825-0.563-0.156-1.104-0.182-1.604-0.047-0.168,0.057-0.309,0.067-0.456,0.037-0.144-0.037-0.269-0.115-0.385-0.193-0.215-0.157-0.349-0.386-0.371-0.646-0.045-0.261,0.022-0.495,0.168-0.699,0.125-0.172,0.306-0.297,0.532-0.338,0.793-0.193,1.631-0.193,2.501,0,0.881,0.188,1.689,0.573,2.456,1.151,0.76,0.579,1.359,1.268,1.777,2.023,0.406,0.782,0.657,1.601,0.677,2.414,0.012,0.192-0.04,0.384-0.203,0.588-0.156,0.214-0.359,0.34-0.63,0.387-0.252,0.041-0.502-0.029-0.713-0.185zm3.799-0.693c-0.215-0.176-0.352-0.38-0.371-0.657-0.094-1.038-0.423-2.032-0.975-2.986-0.544-0.949-1.276-1.762-2.185-2.456-0.927-0.688-1.913-1.162-2.977-1.423-1.053-0.271-2.105-0.307-3.143-0.135-0.26,0.067-0.49,0.01-0.716-0.162-0.201-0.156-0.338-0.37-0.385-0.63-0.066-0.271,0-0.511,0.147-0.725,0.135-0.182,0.354-0.317,0.624-0.375,1.308-0.234,2.622-0.203,3.937,0.151,1.323,0.329,2.544,0.928,3.663,1.772,1.122,0.85,2.027,1.855,2.716,3.033,0.693,1.168,1.1,2.424,1.236,3.732-0.011,0.25-0.078,0.465-0.215,0.657-0.172,0.219-0.375,0.34-0.626,0.387-0.245,0.067-0.48,0-0.73-0.183zm-10.682-11.675c-0.184-0.146-0.317-0.339-0.396-0.589-0.069-0.246-0.012-0.495,0.172-0.735,0.166-0.213,0.371-0.349,0.621-0.37,1.789-0.297,3.555-0.219,5.315,0.234,1.789,0.453,3.42,1.245,4.947,2.387,1.481,1.121,2.691,2.466,3.634,4.05,0.928,1.574,1.5,3.258,1.73,5.046,0,0.286-0.059,0.521-0.203,0.713-0.152,0.203-0.355,0.319-0.615,0.355-0.255,0.042-0.496-0.016-0.699-0.172-0.251-0.183-0.376-0.396-0.396-0.657-0.192-1.506-0.678-2.929-1.496-4.289-0.802-1.356-1.854-2.513-3.134-3.483-1.303-0.974-2.716-1.663-4.233-2.059-1.516-0.407-3.018-0.491-4.501-0.26-0.281,0.042-0.531-0.011-0.746-0.171z" fill="#FFF"/>
 <path d="M63.564,65.334l-5.67-4.834h-28.994c-3.131,0-5.669-2.538-5.669-5.669v-12.662c0-3.131,2.538-5.669,5.669-5.669h28.995c3.131,0,5.67,2.538,5.67,5.669v23.165z" fill="#FFF"/>
 <path d="M31.533,56.667h-2.814v-10.584h2.562l0.105,1.407c0.098-0.182,0.234-0.371,0.409-0.567s0.389-0.378,0.641-0.546,0.546-0.305,0.882-0.41,0.714-0.157,1.134-0.157c1.344,0,2.303,0.368,2.877,1.103s0.861,1.747,0.861,3.035v6.72h-2.814v-6.552c0-0.729-0.154-1.225-0.462-1.491s-0.686-0.399-1.134-0.399c-0.462,0-0.84,0.092-1.134,0.273s-0.521,0.434-0.683,0.756-0.273,0.697-0.336,1.123c-0.063,0.428-0.094,0.879-0.094,1.355v4.934z" fill="#0E4962"/>
 <path d="M39.807,48.456v-2.373h1.848v-0.798c0-0.602,0.063-1.183,0.189-1.743s0.343-1.053,0.651-1.48,0.725-0.767,1.25-1.019,1.193-0.378,2.005-0.378c0.63,0,1.148,0.031,1.554,0.094s0.693,0.116,0.861,0.158l-0.252,2.205c-0.154-0.028-0.35-0.053-0.588-0.074s-0.525-0.031-0.861-0.031c-0.672,0-1.169,0.171-1.491,0.514s-0.483,0.956-0.483,1.838v0.714h2.793v2.373h-2.793v8.211h-2.835v-8.211h-1.848z" fill="#0E4962"/>
 <path d="M50.895,51.375c0,1.092,0.234,1.891,0.704,2.395,0.469,0.504,1.145,0.756,2.026,0.756,0.588,0,1.063-0.077,1.428-0.231,0.364-0.153,0.644-0.294,0.84-0.42l1.071,1.911c-0.126,0.084-0.294,0.192-0.504,0.325-0.21,0.134-0.466,0.263-0.767,0.389-0.302,0.126-0.647,0.234-1.04,0.325-0.392,0.091-0.826,0.137-1.302,0.137-1.75,0-3.069-0.5-3.958-1.501-0.89-1.001-1.334-2.362-1.334-4.085,0-0.826,0.123-1.582,0.368-2.268s0.595-1.274,1.05-1.765c0.454-0.49,1.008-0.868,1.659-1.134,0.65-0.266,1.382-0.399,2.194-0.399,0.518,0,0.993,0.06,1.428,0.178,0.434,0.119,0.812,0.256,1.134,0.41s0.581,0.305,0.777,0.452c0.195,0.147,0.321,0.249,0.378,0.304l-1.26,1.932c-0.07-0.042-0.176-0.111-0.315-0.21-0.14-0.098-0.308-0.192-0.504-0.284-0.196-0.09-0.417-0.17-0.661-0.24-0.245-0.07-0.501-0.105-0.767-0.105-0.798,0-1.438,0.26-1.922,0.777-0.481,0.517-0.723,1.301-0.723,2.351z" fill="#0E4962"/>
 <linearGradient id="DARK_BEVEL_3_" y2="88.134" gradientUnits="userSpaceOnUse" y1="7.4395" x2="48" x1="48">
  <stop stop-color="#000" stop-opacity="0" offset="0.3614"/>
  <stop stop-color="#000" offset="1"/>
 </linearGradient>
 <path id="DARK_BEVEL_2_" opacity="0.23" d="M88,47.978c0,29.633-10.363,40-40,40-29.635,0-40-10.367-40-40,0-29.634,10.365-40,40-40,29.637,0.001,40,10.366,40,40z" fill="url(#DARK_BEVEL_3_)"/>
 <linearGradient id="LIGHT_BEVEL_3_" y2="78.507" gradientUnits="userSpaceOnUse" y1="3.5234" x2="48" x1="48">
  <stop stop-color="#FFF" offset="0"/>
  <stop stop-color="#FFF" stop-opacity="0.18" offset="1"/>
 </linearGradient>
 <path id="LIGHT_BEVEL_1_" opacity="0.4" d="M88,47.978c0,29.633-10.363,40-40,40-29.635,0-40-10.367-40-40,0-29.634,10.365-40,40-40,29.637,0.001,40,10.366,40,40z" fill="url(#LIGHT_BEVEL_3_)"/>
 <linearGradient id="HIGHLIGHTS_2_" y2="87.477" gradientUnits="userSpaceOnUse" y1="8.2319" x2="48" x1="48">
  <stop stop-color="#FFF" offset="0"/>
  <stop stop-color="#FFF" stop-opacity="0" offset="1"/>
 </linearGradient>
 <path id="HIGHLIGHTS_1_" opacity="0.25" d="M48,7.979c-29.635,0-40,10.365-40,40,0,29.633,10.365,40,40,40,29.637,0,40-10.367,40-40,0-29.635-10.363-40-40-40zm0,79.023c-29.159,0-39-9.848-39-39.024,0-29.175,9.841-39.022,39-39.022,29.158,0,39,9.847,39,39.022,0,29.176-9.842,39.024-39,39.024z" fill="url(#HIGHLIGHTS_2_)"/>
</svg>